<svg id="maks" xmlns="http://www.w3.org/2000/svg" xmlns:xlink="http://www.w3.org/1999/xlink" viewBox="0 0 1000 1000">
  <desc>A stylized winter landscape with radial sky gradient, snow-covered hills, and animated vertical snowflake lines, all framed within a circular mask.</desc>
  <defs>
    <clipPath id="clip-mask">
      <circle cx="500" cy="500" r="450"/>
    </clipPath>
    <radialGradient id="sky-gradient" cx="565" cy="533" r="491" gradientUnits="userSpaceOnUse">
      <stop offset="0" stop-color="#fff"/>
      <stop offset="1" stop-color="#789"/>
    </radialGradient>
    <filter id="blur-frontflakes" x="-50%" y="-50%" width="200%" height="200%">
      <feGaussianBlur in="SourceGraphic" stdDeviation="3" />
    </filter>
  </defs>
  <g clip-path="url(#clip-mask)">
    <rect id="sky-background" fill="url(#sky-gradient)" width="1000" height="1000"/>
    <path id="mountain-ridge" fill="#cde" d="M231,349l65,81l48,-41l71,69l115,-60l178,120l0,334l-708,-6l-2,-300l233,-197z"/>
    <path id="snow-patches" fill="#fff" d="M173 398 L195 434 L233 404 L272 401 L231 349 L173 398 Z M308 420 L336 444 L376 420 L344 389 L308 420 Z M493 418 L525 444 L571 425 L530 398 L493 418 Z"/>
    
      <path id="snowflakes-back" 
          d="m 100 0 q 20 100 0 200 t0 200 0 200 0 200 
             M 150 -50 q 20 100 0 200 t0 200 0 200 0 200 
             M 200 50 q 20 100 0 200 t0 200 0 200 0 200 
             M 250 -60 q 20 100 0 200 t0 200 0 200 0 200 
             M 300 60 q 20 100 0 200 t0 200 0 200 0 200 
             M 350 -80 q 20 100 0 200 t0 200 0 200 0 200 
             M 400 80 q 20 100 0 200 t0 200 0 200 0 200 
             M 450 -100 q 20 100 0 200 t0 200 0 200 0 200 
             M 500 100 q 20 100 0 200 t0 200 0 200 0 200 
             M 550 -80 q 20 100 0 200 t0 200 0 200 0 200 
             M 600 80 q 20 100 0 200 t0 200 0 200 0 200 
             M 650 -60 q 20 100 0 200 t0 200 0 200 0 200 
             M 700 60 q 20 100 0 200 t0 200 0 200 0 200 
             M 750 -40 q 20 100 0 200 t0 200 0 200 0 200 
             M 800 40 q 20 100 0 200 t0 200 0 200 0 200 
             M 850 -20 q 20 100 0 200 t0 200 0 200 0 200 
             M 950 20 q 20 100 0 200 t0 200 0 200 0 200 
             M 1000 0 q 20 100 0 200 t0 200 0 200 0 200 
             " 
          stroke="#fff" stroke-width="5" stroke-linecap="round" stroke-dasharray="0 50"
          fill="none" transform="translate(-84 0)" opacity="0.4">
      <animate attributeName="stroke-dashoffset" to="-50" dur="1s" begin="-0.9s" repeatCount="indefinite" />
    </path>
    <path id="hill-layer-back" fill="#bcd" d="M 0 500 a 800 800 0 0 1 500 50 a 800 800 0 0 1 500 0v1000 h-1000z"/>
    <path id="snowflakes-back" 
          d="m 100 0 q 60 100 0 200 t0 200 0 200 0 200 0 200
             M 200 -50 q 60 100 0 200 t0 200 0 200 0 200 0 200
             M 300 50 q 60 100 0 200 t0 200 0 200 0 200 0 200
             M 400 -60 q 60 100 0 200 t0 200 0 200 0 200 0 200
             M 500 60 q 60 100 0 200 t0 200 0 200 0 200 0 200
             M 600 -80 q 60 100 0 200 t0 200 0 200 0 200 0 200
             M 700 80 q 60 100 0 200 t0 200 0 200 0 200 0 200
             M 800 0 q 60 100 0 200 t0 200 0 200 0 200 0 200
             M 900 0 q 60 100 0 200 t0 200 0 200 0 200 0 200" 
          stroke="#fff" stroke-width="10" stroke-linecap="round" stroke-dasharray="0 123"
          fill="none" transform="translate(100 0)" opacity="0.4">
      <animate attributeName="stroke-dashoffset" to="-123" dur="2s" begin="-0.9s" repeatCount="indefinite" />
    </path>
    <path id="hill-layer-front" fill="#abc" d="M -100 700 a 800 800 0 0 1 400 50 a 800 800 0 0 1 600 0v1000 h-1000z"/>
   
    <path id="tree-trunk" fill="#fff" d="m 710 0 l -26 1000 114 0 l -20 -1000"/>
    <path id="bark-marks" fill="black" d="M 703 370 l40,12l-40,9
      M 705,292l46,12l-46,8
      M707,150l25,6l-25,5
      M699,476l40,12l-40,9
      M692,637l59,12t-60,9
      M683,790l61,12t-63,9
      M800,749l-56,-11t55,-8
      M786,452l-42,-8t41,-6
      M782,345l-28,-3l28,-3
      M779,213l-25,-8l25,-4"/>
    <path id="snowflakes-font" 
          d="m 100 0 q 20 100 0 200 t0 200 0 200 0 200 0 200
             M 200 -50 q 40 100 0 200 t0 200 0 200 0 200 0 200
             M 300 50 q 60 100 0 200 t0 200 0 200 0 200 0 200
             M 400 -60 q 80 100 0 200 t0 200 0 200 0 200 0 200
             M 500 60 q 100 100 0 200 t0 200 0 200 0 200 0 200
             M 600 -80 q 80 100 0 200 t0 200 0 200 0 200 0 200
             M 700 80 q 60 100 0 200 t0 200 0 200 0 200 0 200
             M 800 0 q 40 100 0 200 t0 200 0 200 0 200 0 200
             M 900 0 q 20 100 0 200 t0 200 0 200 0 200 0 200"
          stroke="#fff" stroke-width="20" opacity="1" stroke-linecap="round" stroke-dasharray="0 321"
          fill="none"
          filter="url(#blur-frontflakes)">
      <animate attributeName="stroke-dashoffset" to="-321" dur="3s" repeatCount="indefinite" />
    </path>
  </g>
  <circle id="circle-outline" cx="500" cy="500" r="420" stroke="#fff" stroke-width="10" opacity="0.9" fill="none"/>
</svg>
